<?xml version="1.0" encoding="UTF-8" standalone="no"?>
<!-- Generator: Adobe Illustrator 15.1.0, SVG Export Plug-In  -->

<svg
   xmlns:dc="http://purl.org/dc/elements/1.1/"
   xmlns:cc="http://creativecommons.org/ns#"
   xmlns:rdf="http://www.w3.org/1999/02/22-rdf-syntax-ns#"
   xmlns:svg="http://www.w3.org/2000/svg"
   xmlns="http://www.w3.org/2000/svg"
   xmlns:sodipodi="http://sodipodi.sourceforge.net/DTD/sodipodi-0.dtd"
   xmlns:inkscape="http://www.inkscape.org/namespaces/inkscape"
   version="1.1"
   x="0px"
   y="0px"
   width="12"
   height="12"
   viewBox="-0.4 -0.3 12 12"
   style="overflow:visible"
   xml:space="preserve"
   preserveAspectRatio="xMinYMid meet"
   id="svg3025"
   inkscape:version="0.48.4 r9939"
   sodipodi:docname="delete.svg"><metadata
   id="metadata3033"><rdf:RDF><cc:Work
       rdf:about=""><dc:format>image/svg+xml</dc:format><dc:type
         rdf:resource="http://purl.org/dc/dcmitype/StillImage" /><dc:title></dc:title></cc:Work></rdf:RDF></metadata><sodipodi:namedview
   pagecolor="#ffffff"
   bordercolor="#666666"
   borderopacity="1"
   objecttolerance="10"
   gridtolerance="10"
   guidetolerance="10"
   inkscape:pageopacity="0"
   inkscape:pageshadow="2"
   inkscape:window-width="1366"
   inkscape:window-height="705"
   id="namedview3031"
   showgrid="false"
   inkscape:zoom="19.666667"
   inkscape:cx="6"
   inkscape:cy="6"
   inkscape:window-x="-8"
   inkscape:window-y="-8"
   inkscape:window-maximized="1"
   inkscape:current-layer="svg3025" />
<defs
   id="defs3027">
</defs>
<path
   style="fill:#999999"
   d="m 7.883186,5.6469026 3.39823,-3.39823 c 0.424779,-0.4247788 0.424779,-1.0619469 0,-1.4867257 L 10.538053,0.0185841 c -0.424779,-0.4247788 -1.0619465,-0.4247788 -1.4867255,0 L 5.5469026,3.4168142 2.1486726,0.0185841 c -0.4247788,-0.4247788 -1.0619469,-0.4247788 -1.4867257,0 l -0.74336283,0.7433628 c -0.42477876,0.4247788 -0.42477876,1.0619469 0,1.4867257 l 3.39823013,3.39823 -3.39823013,3.5044254 c -0.42477876,0.424779 -0.42477876,1.061946 0,1.486725 l 0.74336283,0.743363 c 0.4247788,0.424779 1.0619469,0.424779 1.4867257,0 l 3.39823,-3.39823 3.5044249,3.39823 c 0.424779,0.424779 1.0619465,0.424779 1.4867255,0 l 0.743363,-0.743363 c 0.424779,-0.424779 0.424779,-1.061946 0,-1.486725 L 7.883186,5.6469026 z"
   id="path3029"
   inkscape:connector-curvature="0" />
</svg>