<?xml version="1.0" encoding="UTF-8" standalone="no"?>
<!-- Generator: Adobe Illustrator 15.1.0, SVG Export Plug-In  -->

<svg
   xmlns:dc="http://purl.org/dc/elements/1.1/"
   xmlns:cc="http://creativecommons.org/ns#"
   xmlns:rdf="http://www.w3.org/1999/02/22-rdf-syntax-ns#"
   xmlns:svg="http://www.w3.org/2000/svg"
   xmlns="http://www.w3.org/2000/svg"
   xmlns:sodipodi="http://sodipodi.sourceforge.net/DTD/sodipodi-0.dtd"
   xmlns:inkscape="http://www.inkscape.org/namespaces/inkscape"
   version="1.1"
   x="0px"
   y="0px"
   width="12"
   height="12"
   viewBox="0 0 12 12"
   style="overflow:visible"
   xml:space="preserve"
   preserveAspectRatio="xMinYMid meet"
   id="svg3005"
   inkscape:version="0.48.4 r9939"
   sodipodi:docname="dragdrop.svg"><metadata
   id="metadata3013"><rdf:RDF><cc:Work
       rdf:about=""><dc:format>image/svg+xml</dc:format><dc:type
         rdf:resource="http://purl.org/dc/dcmitype/StillImage" /></cc:Work></rdf:RDF></metadata><sodipodi:namedview
   pagecolor="#ffffff"
   bordercolor="#666666"
   borderopacity="1"
   objecttolerance="10"
   gridtolerance="10"
   guidetolerance="10"
   inkscape:pageopacity="0"
   inkscape:pageshadow="2"
   inkscape:window-width="1366"
   inkscape:window-height="705"
   id="namedview3011"
   showgrid="false"
   inkscape:zoom="32.375"
   inkscape:cx="8"
   inkscape:cy="8"
   inkscape:window-x="-8"
   inkscape:window-y="-8"
   inkscape:window-maximized="1"
   inkscape:current-layer="svg3005" />
<defs
   id="defs3007">
</defs>
<path
   style="fill:#999999"
   d="M 11.775,5.475 9.9,3.6 C 9.6,3.3 9.375,3.375 9.375,3.825 v 1.2 H 7.125 V 2.775 H 8.25 C 8.625,2.775 8.775,2.55 8.475,2.25 L 6.525,0.225 c -0.3,-0.3 -0.75,-0.3 -1.05,0 L 3.6,2.175 C 3.3,2.4 3.375,2.7 3.75,2.7 H 4.875 V 4.95 H 2.625 V 3.75 C 2.625,3.375 2.4,3.225 2.1,3.525 l -1.875,1.95 c -0.3,0.3 -0.3,0.75 0,1.05 L 2.1,8.4 C 2.4,8.7 2.625,8.625 2.625,8.175 V 7.2 h 2.25 V 9.45 H 3.75 C 3.375,9.45 3.225,9.6 3.525,9.9 L 5.4,11.775 c 0.3,0.3 0.75,0.3 1.05,0 L 8.4,9.9 C 8.7,9.6 8.625,9.45 8.175,9.45 H 7.125 V 7.2 h 2.25 V 8.25 C 9.375,8.625 9.6,8.775 9.9,8.475 L 11.775,6.6 c 0.3,-0.375 0.3,-0.825 0,-1.125 z"
   id="path3009"
   inkscape:connector-curvature="0" />
</svg>