<?xml version="1.0" encoding="UTF-8" standalone="no"?>
<!-- Generator: Adobe Illustrator 15.1.0, SVG Export Plug-In  -->

<svg
   xmlns:dc="http://purl.org/dc/elements/1.1/"
   xmlns:cc="http://creativecommons.org/ns#"
   xmlns:rdf="http://www.w3.org/1999/02/22-rdf-syntax-ns#"
   xmlns:svg="http://www.w3.org/2000/svg"
   xmlns="http://www.w3.org/2000/svg"
   xmlns:sodipodi="http://sodipodi.sourceforge.net/DTD/sodipodi-0.dtd"
   xmlns:inkscape="http://www.inkscape.org/namespaces/inkscape"
   version="1.1"
   x="0px"
   y="0px"
   width="12"
   height="12"
   viewBox="0 0 12 12"
   style="overflow:visible"
   xml:space="preserve"
   preserveAspectRatio="xMinYMid meet"
   id="svg3065"
   inkscape:version="0.48.4 r9939"
   sodipodi:docname="rotateright.svg"><metadata
   id="metadata3073"><rdf:RDF><cc:Work
       rdf:about=""><dc:format>image/svg+xml</dc:format><dc:type
         rdf:resource="http://purl.org/dc/dcmitype/StillImage" /></cc:Work></rdf:RDF></metadata><sodipodi:namedview
   pagecolor="#ffffff"
   bordercolor="#666666"
   borderopacity="1"
   objecttolerance="10"
   gridtolerance="10"
   guidetolerance="10"
   inkscape:pageopacity="0"
   inkscape:pageshadow="2"
   inkscape:window-width="1366"
   inkscape:window-height="705"
   id="namedview3071"
   showgrid="false"
   inkscape:zoom="14.75"
   inkscape:cx="8"
   inkscape:cy="8"
   inkscape:window-x="-8"
   inkscape:window-y="-8"
   inkscape:window-maximized="1"
   inkscape:current-layer="svg3065" />
<defs
   id="defs3067">
</defs>
<path
   style="fill:#999999"
   d="m 5.925,12 c 3,0 5.55,-2.25 5.85,-5.25 H 9.525 C 9.15,8.25 7.65,9.75 5.85,9.75 3.75,9.75 2.1,8.1 2.1,6 2.1,3.9 3.75,2.25 5.85,2.25 6.675,2.25 7.425,2.25 8.1,3 H 7.35 C 6.975,3 6.75,3.375 6.75,3.825 v 0.75 c 0,0.375 0.225,0.675 0.6,0.675 h 3 0.75 c 0.45,0 0.9,-0.3 0.9,-0.675 v -0.75 -3 C 12,0.375 11.55,0 11.1,0 H 10.35 C 9.975,0 9.75,0.375 9.75,0.825 V 1.5 C 9,0.675 7.425,0.15 6,0.15 2.7,0.15 0,2.775 0,6.075 0,9.3 2.625,12 5.925,12 z"
   id="path3069"
   inkscape:connector-curvature="0" />
</svg>