<?xml version="1.0" encoding="UTF-8" standalone="no"?>
<!-- Generator: Adobe Illustrator 15.1.0, SVG Export Plug-In  -->

<svg
   xmlns:dc="http://purl.org/dc/elements/1.1/"
   xmlns:cc="http://creativecommons.org/ns#"
   xmlns:rdf="http://www.w3.org/1999/02/22-rdf-syntax-ns#"
   xmlns:svg="http://www.w3.org/2000/svg"
   xmlns="http://www.w3.org/2000/svg"
   xmlns:sodipodi="http://sodipodi.sourceforge.net/DTD/sodipodi-0.dtd"
   xmlns:inkscape="http://www.inkscape.org/namespaces/inkscape"
   version="1.1"
   x="0px"
   y="0px"
   width="12"
   height="12"
   viewBox="0 0 12 12"
   style="overflow:visible"
   xml:space="preserve"
   preserveAspectRatio="xMinYMid meet"
   id="svg3045"
   inkscape:version="0.48.4 r9939"
   sodipodi:docname="rotateleft.svg"><metadata
   id="metadata3053"><rdf:RDF><cc:Work
       rdf:about=""><dc:format>image/svg+xml</dc:format><dc:type
         rdf:resource="http://purl.org/dc/dcmitype/StillImage" /><dc:title></dc:title></cc:Work></rdf:RDF></metadata><sodipodi:namedview
   pagecolor="#ffffff"
   bordercolor="#666666"
   borderopacity="1"
   objecttolerance="10"
   gridtolerance="10"
   guidetolerance="10"
   inkscape:pageopacity="0"
   inkscape:pageshadow="2"
   inkscape:window-width="1366"
   inkscape:window-height="705"
   id="namedview3051"
   showgrid="false"
   inkscape:zoom="14.75"
   inkscape:cx="8"
   inkscape:cy="8"
   inkscape:window-x="-8"
   inkscape:window-y="-8"
   inkscape:window-maximized="1"
   inkscape:current-layer="svg3045"
   fit-margin-top="0"
   fit-margin-left="0"
   fit-margin-right="0"
   fit-margin-bottom="0" />
<defs
   id="defs3047">
</defs>
<path
   style="fill:#999999"
   d="m 6.075,12 c -3,0 -5.55,-2.25 -5.85,-5.25 h 2.25 c 0.375,1.5 1.875,3 3.675,3 C 8.25,9.75 9.9,8.1 9.9,6 9.9,3.9 8.25,2.25 6.15,2.25 5.325,2.25 4.575,2.25 3.9,3 h 0.75 c 0.375,0 0.6,0.375 0.6,0.825 v 0.75 C 5.25,4.95 5.025,5.25 4.65,5.25 H 1.65 0.9 C 0.45,5.25 0,4.95 0,4.575 v -0.75 -3 C 0,0.375 0.45,0 0.9,0 h 0.75 c 0.375,0 0.6,0.375 0.6,0.825 V 1.5 C 3,0.675 4.575,0.15 6,0.15 c 3.3,0 6,2.625 6,5.925 C 12,9.3 9.375,12 6.075,12 z"
   id="path3049"
   inkscape:connector-curvature="0" />
</svg>